<mxfile host="app.diagrams.net" agent="Mozilla/5.0 (Windows NT 10.0; Win64; x64; rv:129.0) Gecko/20100101 Firefox/129.0" version="24.7.7">
  <diagram name="Page-1" id="sqo7e_nkvk8dhI7Wn-r7">
    <mxGraphModel dx="925" dy="510" grid="1" gridSize="10" guides="1" tooltips="1" connect="1" arrows="1" fold="1" page="1" pageScale="1" pageWidth="850" pageHeight="1100" math="0" shadow="0">
      <root>
        <mxCell id="0" />
        <mxCell id="1" parent="0" />
        <mxCell id="ZQUHLIVJ1xkmGwxhRDHh-96" value="Questao 3" style="swimlane;startSize=70;fontSize=29;fillColor=#76E317;strokeColor=#7B8215;fontColor=#000000;" vertex="1" parent="1">
          <mxGeometry x="10" y="950" width="990" height="860" as="geometry" />
        </mxCell>
        <mxCell id="ZQUHLIVJ1xkmGwxhRDHh-5" value="Banco" style="swimlane;fontStyle=0;childLayout=stackLayout;horizontal=1;startSize=30;horizontalStack=0;resizeParent=1;resizeParentMax=0;resizeLast=0;collapsible=1;marginBottom=0;whiteSpace=wrap;html=1;fillColor=#dae8fc;strokeColor=#6c8ebf;" vertex="1" parent="ZQUHLIVJ1xkmGwxhRDHh-96">
          <mxGeometry x="100" y="150" width="140" height="160" as="geometry" />
        </mxCell>
        <mxCell id="ZQUHLIVJ1xkmGwxhRDHh-6" value="ID_Banco" style="text;strokeColor=none;fillColor=none;align=left;verticalAlign=middle;spacingLeft=4;spacingRight=4;overflow=hidden;points=[[0,0.5],[1,0.5]];portConstraint=eastwest;rotatable=0;whiteSpace=wrap;html=1;" vertex="1" parent="ZQUHLIVJ1xkmGwxhRDHh-5">
          <mxGeometry y="30" width="140" height="30" as="geometry" />
        </mxCell>
        <mxCell id="ZQUHLIVJ1xkmGwxhRDHh-7" value="Nome" style="text;strokeColor=none;fillColor=none;align=left;verticalAlign=middle;spacingLeft=4;spacingRight=4;overflow=hidden;points=[[0,0.5],[1,0.5]];portConstraint=eastwest;rotatable=0;whiteSpace=wrap;html=1;" vertex="1" parent="ZQUHLIVJ1xkmGwxhRDHh-5">
          <mxGeometry y="60" width="140" height="30" as="geometry" />
        </mxCell>
        <mxCell id="ZQUHLIVJ1xkmGwxhRDHh-8" value="Endereço" style="text;strokeColor=none;fillColor=none;align=left;verticalAlign=middle;spacingLeft=4;spacingRight=4;overflow=hidden;points=[[0,0.5],[1,0.5]];portConstraint=eastwest;rotatable=0;whiteSpace=wrap;html=1;" vertex="1" parent="ZQUHLIVJ1xkmGwxhRDHh-5">
          <mxGeometry y="90" width="140" height="30" as="geometry" />
        </mxCell>
        <mxCell id="ZQUHLIVJ1xkmGwxhRDHh-44" value="" style="line;strokeWidth=1;html=1;fillColor=#dae8fc;strokeColor=#6c8ebf;" vertex="1" parent="ZQUHLIVJ1xkmGwxhRDHh-5">
          <mxGeometry y="120" width="140" height="10" as="geometry" />
        </mxCell>
        <mxCell id="ZQUHLIVJ1xkmGwxhRDHh-9" value="ID_Agencia (S)" style="text;strokeColor=none;fillColor=none;align=left;verticalAlign=middle;spacingLeft=4;spacingRight=4;overflow=hidden;points=[[0,0.5],[1,0.5]];portConstraint=eastwest;rotatable=0;whiteSpace=wrap;html=1;" vertex="1" parent="ZQUHLIVJ1xkmGwxhRDHh-5">
          <mxGeometry y="130" width="140" height="30" as="geometry" />
        </mxCell>
        <mxCell id="ZQUHLIVJ1xkmGwxhRDHh-31" value="Agencia" style="swimlane;fontStyle=0;childLayout=stackLayout;horizontal=1;startSize=30;horizontalStack=0;resizeParent=1;resizeParentMax=0;resizeLast=0;collapsible=1;marginBottom=0;whiteSpace=wrap;html=1;fillColor=#ffe6cc;strokeColor=#d79b00;" vertex="1" parent="ZQUHLIVJ1xkmGwxhRDHh-96">
          <mxGeometry x="420" y="210" width="140" height="220" as="geometry" />
        </mxCell>
        <mxCell id="ZQUHLIVJ1xkmGwxhRDHh-32" value="ID_Agencia" style="text;strokeColor=none;fillColor=none;align=left;verticalAlign=middle;spacingLeft=4;spacingRight=4;overflow=hidden;points=[[0,0.5],[1,0.5]];portConstraint=eastwest;rotatable=0;whiteSpace=wrap;html=1;" vertex="1" parent="ZQUHLIVJ1xkmGwxhRDHh-31">
          <mxGeometry y="30" width="140" height="30" as="geometry" />
        </mxCell>
        <mxCell id="ZQUHLIVJ1xkmGwxhRDHh-33" value="Numero" style="text;strokeColor=none;fillColor=none;align=left;verticalAlign=middle;spacingLeft=4;spacingRight=4;overflow=hidden;points=[[0,0.5],[1,0.5]];portConstraint=eastwest;rotatable=0;whiteSpace=wrap;html=1;" vertex="1" parent="ZQUHLIVJ1xkmGwxhRDHh-31">
          <mxGeometry y="60" width="140" height="30" as="geometry" />
        </mxCell>
        <mxCell id="ZQUHLIVJ1xkmGwxhRDHh-34" value="Endereço" style="text;strokeColor=none;fillColor=none;align=left;verticalAlign=middle;spacingLeft=4;spacingRight=4;overflow=hidden;points=[[0,0.5],[1,0.5]];portConstraint=eastwest;rotatable=0;whiteSpace=wrap;html=1;" vertex="1" parent="ZQUHLIVJ1xkmGwxhRDHh-31">
          <mxGeometry y="90" width="140" height="30" as="geometry" />
        </mxCell>
        <mxCell id="ZQUHLIVJ1xkmGwxhRDHh-43" value="" style="line;strokeWidth=1;html=1;fillColor=#ffe6cc;strokeColor=#d79b00;" vertex="1" parent="ZQUHLIVJ1xkmGwxhRDHh-31">
          <mxGeometry y="120" width="140" height="10" as="geometry" />
        </mxCell>
        <mxCell id="ZQUHLIVJ1xkmGwxhRDHh-36" value="ID_Banco" style="text;strokeColor=none;fillColor=none;align=left;verticalAlign=middle;spacingLeft=4;spacingRight=4;overflow=hidden;points=[[0,0.5],[1,0.5]];portConstraint=eastwest;rotatable=0;whiteSpace=wrap;html=1;" vertex="1" parent="ZQUHLIVJ1xkmGwxhRDHh-31">
          <mxGeometry y="130" width="140" height="30" as="geometry" />
        </mxCell>
        <mxCell id="ZQUHLIVJ1xkmGwxhRDHh-45" value="ID_Emprestimo (S)" style="text;strokeColor=none;fillColor=none;align=left;verticalAlign=middle;spacingLeft=4;spacingRight=4;overflow=hidden;points=[[0,0.5],[1,0.5]];portConstraint=eastwest;rotatable=0;whiteSpace=wrap;html=1;" vertex="1" parent="ZQUHLIVJ1xkmGwxhRDHh-31">
          <mxGeometry y="160" width="140" height="30" as="geometry" />
        </mxCell>
        <mxCell id="ZQUHLIVJ1xkmGwxhRDHh-51" value="ID_Conta (S)" style="text;strokeColor=none;fillColor=none;align=left;verticalAlign=middle;spacingLeft=4;spacingRight=4;overflow=hidden;points=[[0,0.5],[1,0.5]];portConstraint=eastwest;rotatable=0;whiteSpace=wrap;html=1;" vertex="1" parent="ZQUHLIVJ1xkmGwxhRDHh-31">
          <mxGeometry y="190" width="140" height="30" as="geometry" />
        </mxCell>
        <mxCell id="ZQUHLIVJ1xkmGwxhRDHh-40" style="edgeStyle=orthogonalEdgeStyle;rounded=0;orthogonalLoop=1;jettySize=auto;html=1;fillColor=#ffe6cc;strokeColor=#d79b00;" edge="1" parent="ZQUHLIVJ1xkmGwxhRDHh-96" source="ZQUHLIVJ1xkmGwxhRDHh-36" target="ZQUHLIVJ1xkmGwxhRDHh-6">
          <mxGeometry relative="1" as="geometry">
            <Array as="points">
              <mxPoint x="340" y="355" />
              <mxPoint x="340" y="195" />
            </Array>
          </mxGeometry>
        </mxCell>
        <mxCell id="ZQUHLIVJ1xkmGwxhRDHh-48" value="( 1 )" style="edgeLabel;html=1;align=center;verticalAlign=middle;resizable=0;points=[];" vertex="1" connectable="0" parent="ZQUHLIVJ1xkmGwxhRDHh-40">
          <mxGeometry x="-0.0549" y="5" relative="1" as="geometry">
            <mxPoint x="-25" y="-79" as="offset" />
          </mxGeometry>
        </mxCell>
        <mxCell id="ZQUHLIVJ1xkmGwxhRDHh-49" style="edgeStyle=orthogonalEdgeStyle;rounded=0;orthogonalLoop=1;jettySize=auto;html=1;fillColor=#dae8fc;strokeColor=#6c8ebf;" edge="1" parent="ZQUHLIVJ1xkmGwxhRDHh-96" source="ZQUHLIVJ1xkmGwxhRDHh-9" target="ZQUHLIVJ1xkmGwxhRDHh-32">
          <mxGeometry relative="1" as="geometry">
            <Array as="points">
              <mxPoint x="350" y="295" />
              <mxPoint x="350" y="255" />
            </Array>
          </mxGeometry>
        </mxCell>
        <mxCell id="ZQUHLIVJ1xkmGwxhRDHh-50" value="( n )" style="edgeLabel;html=1;align=center;verticalAlign=middle;resizable=0;points=[];" vertex="1" connectable="0" parent="ZQUHLIVJ1xkmGwxhRDHh-49">
          <mxGeometry x="-0.1936" y="1" relative="1" as="geometry">
            <mxPoint x="-16" y="1" as="offset" />
          </mxGeometry>
        </mxCell>
        <mxCell id="ZQUHLIVJ1xkmGwxhRDHh-52" value="Conta" style="swimlane;fontStyle=0;childLayout=stackLayout;horizontal=1;startSize=30;horizontalStack=0;resizeParent=1;resizeParentMax=0;resizeLast=0;collapsible=1;marginBottom=0;whiteSpace=wrap;html=1;fillColor=#d5e8d4;strokeColor=#82b366;" vertex="1" parent="ZQUHLIVJ1xkmGwxhRDHh-96">
          <mxGeometry x="100" y="400" width="140" height="190" as="geometry" />
        </mxCell>
        <mxCell id="ZQUHLIVJ1xkmGwxhRDHh-53" value="ID_Conta" style="text;strokeColor=none;fillColor=none;align=left;verticalAlign=middle;spacingLeft=4;spacingRight=4;overflow=hidden;points=[[0,0.5],[1,0.5]];portConstraint=eastwest;rotatable=0;whiteSpace=wrap;html=1;" vertex="1" parent="ZQUHLIVJ1xkmGwxhRDHh-52">
          <mxGeometry y="30" width="140" height="30" as="geometry" />
        </mxCell>
        <mxCell id="ZQUHLIVJ1xkmGwxhRDHh-54" value="Tipo" style="text;strokeColor=none;fillColor=none;align=left;verticalAlign=middle;spacingLeft=4;spacingRight=4;overflow=hidden;points=[[0,0.5],[1,0.5]];portConstraint=eastwest;rotatable=0;whiteSpace=wrap;html=1;" vertex="1" parent="ZQUHLIVJ1xkmGwxhRDHh-52">
          <mxGeometry y="60" width="140" height="30" as="geometry" />
        </mxCell>
        <mxCell id="ZQUHLIVJ1xkmGwxhRDHh-55" value="Saldo" style="text;strokeColor=none;fillColor=none;align=left;verticalAlign=middle;spacingLeft=4;spacingRight=4;overflow=hidden;points=[[0,0.5],[1,0.5]];portConstraint=eastwest;rotatable=0;whiteSpace=wrap;html=1;" vertex="1" parent="ZQUHLIVJ1xkmGwxhRDHh-52">
          <mxGeometry y="90" width="140" height="30" as="geometry" />
        </mxCell>
        <mxCell id="ZQUHLIVJ1xkmGwxhRDHh-56" value="" style="line;strokeWidth=1;html=1;fillColor=#d5e8d4;strokeColor=#82b366;" vertex="1" parent="ZQUHLIVJ1xkmGwxhRDHh-52">
          <mxGeometry y="120" width="140" height="10" as="geometry" />
        </mxCell>
        <mxCell id="ZQUHLIVJ1xkmGwxhRDHh-57" value="ID_Cliente (S)" style="text;strokeColor=none;fillColor=none;align=left;verticalAlign=middle;spacingLeft=4;spacingRight=4;overflow=hidden;points=[[0,0.5],[1,0.5]];portConstraint=eastwest;rotatable=0;whiteSpace=wrap;html=1;" vertex="1" parent="ZQUHLIVJ1xkmGwxhRDHh-52">
          <mxGeometry y="130" width="140" height="30" as="geometry" />
        </mxCell>
        <mxCell id="ZQUHLIVJ1xkmGwxhRDHh-58" value="ID_Agencia" style="text;strokeColor=none;fillColor=none;align=left;verticalAlign=middle;spacingLeft=4;spacingRight=4;overflow=hidden;points=[[0,0.5],[1,0.5]];portConstraint=eastwest;rotatable=0;whiteSpace=wrap;html=1;" vertex="1" parent="ZQUHLIVJ1xkmGwxhRDHh-52">
          <mxGeometry y="160" width="140" height="30" as="geometry" />
        </mxCell>
        <mxCell id="ZQUHLIVJ1xkmGwxhRDHh-60" style="edgeStyle=orthogonalEdgeStyle;rounded=0;orthogonalLoop=1;jettySize=auto;html=1;fillColor=#ffe6cc;strokeColor=#d79b00;" edge="1" parent="ZQUHLIVJ1xkmGwxhRDHh-96" source="ZQUHLIVJ1xkmGwxhRDHh-51" target="ZQUHLIVJ1xkmGwxhRDHh-53">
          <mxGeometry relative="1" as="geometry">
            <Array as="points">
              <mxPoint x="310" y="415" />
              <mxPoint x="310" y="445" />
            </Array>
          </mxGeometry>
        </mxCell>
        <mxCell id="ZQUHLIVJ1xkmGwxhRDHh-61" value="( n )" style="edgeLabel;html=1;align=center;verticalAlign=middle;resizable=0;points=[];" vertex="1" connectable="0" parent="ZQUHLIVJ1xkmGwxhRDHh-60">
          <mxGeometry x="-0.159" relative="1" as="geometry">
            <mxPoint x="-21" as="offset" />
          </mxGeometry>
        </mxCell>
        <mxCell id="ZQUHLIVJ1xkmGwxhRDHh-62" value="Cliente" style="swimlane;fontStyle=0;childLayout=stackLayout;horizontal=1;startSize=30;horizontalStack=0;resizeParent=1;resizeParentMax=0;resizeLast=0;collapsible=1;marginBottom=0;whiteSpace=wrap;html=1;fillColor=#e1d5e7;strokeColor=#9673a6;" vertex="1" parent="ZQUHLIVJ1xkmGwxhRDHh-96">
          <mxGeometry x="420" y="530" width="140" height="250" as="geometry" />
        </mxCell>
        <mxCell id="ZQUHLIVJ1xkmGwxhRDHh-63" value="ID_Cliente" style="text;strokeColor=none;fillColor=none;align=left;verticalAlign=middle;spacingLeft=4;spacingRight=4;overflow=hidden;points=[[0,0.5],[1,0.5]];portConstraint=eastwest;rotatable=0;whiteSpace=wrap;html=1;" vertex="1" parent="ZQUHLIVJ1xkmGwxhRDHh-62">
          <mxGeometry y="30" width="140" height="30" as="geometry" />
        </mxCell>
        <mxCell id="ZQUHLIVJ1xkmGwxhRDHh-64" value="Nome" style="text;strokeColor=none;fillColor=none;align=left;verticalAlign=middle;spacingLeft=4;spacingRight=4;overflow=hidden;points=[[0,0.5],[1,0.5]];portConstraint=eastwest;rotatable=0;whiteSpace=wrap;html=1;" vertex="1" parent="ZQUHLIVJ1xkmGwxhRDHh-62">
          <mxGeometry y="60" width="140" height="30" as="geometry" />
        </mxCell>
        <mxCell id="ZQUHLIVJ1xkmGwxhRDHh-65" value="Endereço" style="text;strokeColor=none;fillColor=none;align=left;verticalAlign=middle;spacingLeft=4;spacingRight=4;overflow=hidden;points=[[0,0.5],[1,0.5]];portConstraint=eastwest;rotatable=0;whiteSpace=wrap;html=1;" vertex="1" parent="ZQUHLIVJ1xkmGwxhRDHh-62">
          <mxGeometry y="90" width="140" height="30" as="geometry" />
        </mxCell>
        <mxCell id="ZQUHLIVJ1xkmGwxhRDHh-69" value="Telefone" style="text;strokeColor=none;fillColor=none;align=left;verticalAlign=middle;spacingLeft=4;spacingRight=4;overflow=hidden;points=[[0,0.5],[1,0.5]];portConstraint=eastwest;rotatable=0;whiteSpace=wrap;html=1;" vertex="1" parent="ZQUHLIVJ1xkmGwxhRDHh-62">
          <mxGeometry y="120" width="140" height="30" as="geometry" />
        </mxCell>
        <mxCell id="ZQUHLIVJ1xkmGwxhRDHh-70" value="CPF" style="text;strokeColor=none;fillColor=none;align=left;verticalAlign=middle;spacingLeft=4;spacingRight=4;overflow=hidden;points=[[0,0.5],[1,0.5]];portConstraint=eastwest;rotatable=0;whiteSpace=wrap;html=1;" vertex="1" parent="ZQUHLIVJ1xkmGwxhRDHh-62">
          <mxGeometry y="150" width="140" height="30" as="geometry" />
        </mxCell>
        <mxCell id="ZQUHLIVJ1xkmGwxhRDHh-66" value="" style="line;strokeWidth=1;html=1;fillColor=#e1d5e7;strokeColor=#9673a6;" vertex="1" parent="ZQUHLIVJ1xkmGwxhRDHh-62">
          <mxGeometry y="180" width="140" height="10" as="geometry" />
        </mxCell>
        <mxCell id="ZQUHLIVJ1xkmGwxhRDHh-67" value="ID_Conta (S)" style="text;strokeColor=none;fillColor=none;align=left;verticalAlign=middle;spacingLeft=4;spacingRight=4;overflow=hidden;points=[[0,0.5],[1,0.5]];portConstraint=eastwest;rotatable=0;whiteSpace=wrap;html=1;" vertex="1" parent="ZQUHLIVJ1xkmGwxhRDHh-62">
          <mxGeometry y="190" width="140" height="30" as="geometry" />
        </mxCell>
        <mxCell id="ZQUHLIVJ1xkmGwxhRDHh-77" value="ID_Empresimo (S)" style="text;strokeColor=none;fillColor=none;align=left;verticalAlign=middle;spacingLeft=4;spacingRight=4;overflow=hidden;points=[[0,0.5],[1,0.5]];portConstraint=eastwest;rotatable=0;whiteSpace=wrap;html=1;" vertex="1" parent="ZQUHLIVJ1xkmGwxhRDHh-62">
          <mxGeometry y="220" width="140" height="30" as="geometry" />
        </mxCell>
        <mxCell id="ZQUHLIVJ1xkmGwxhRDHh-71" style="edgeStyle=orthogonalEdgeStyle;rounded=0;orthogonalLoop=1;jettySize=auto;html=1;entryX=0;entryY=0.5;entryDx=0;entryDy=0;fillColor=#d5e8d4;strokeColor=#82b366;" edge="1" parent="ZQUHLIVJ1xkmGwxhRDHh-96" source="ZQUHLIVJ1xkmGwxhRDHh-58" target="ZQUHLIVJ1xkmGwxhRDHh-32">
          <mxGeometry relative="1" as="geometry">
            <Array as="points">
              <mxPoint x="270" y="575" />
              <mxPoint x="270" y="255" />
            </Array>
          </mxGeometry>
        </mxCell>
        <mxCell id="ZQUHLIVJ1xkmGwxhRDHh-72" value="( 1 )" style="edgeLabel;html=1;align=center;verticalAlign=middle;resizable=0;points=[];" vertex="1" connectable="0" parent="ZQUHLIVJ1xkmGwxhRDHh-71">
          <mxGeometry x="0.4869" relative="1" as="geometry">
            <mxPoint x="19" as="offset" />
          </mxGeometry>
        </mxCell>
        <mxCell id="ZQUHLIVJ1xkmGwxhRDHh-73" style="edgeStyle=orthogonalEdgeStyle;rounded=0;orthogonalLoop=1;jettySize=auto;html=1;fillColor=#d5e8d4;strokeColor=#82b366;" edge="1" parent="ZQUHLIVJ1xkmGwxhRDHh-96" source="ZQUHLIVJ1xkmGwxhRDHh-57" target="ZQUHLIVJ1xkmGwxhRDHh-63">
          <mxGeometry relative="1" as="geometry">
            <Array as="points">
              <mxPoint x="300" y="545" />
              <mxPoint x="300" y="575" />
            </Array>
          </mxGeometry>
        </mxCell>
        <mxCell id="ZQUHLIVJ1xkmGwxhRDHh-74" value="( n )" style="edgeLabel;html=1;align=center;verticalAlign=middle;resizable=0;points=[];" vertex="1" connectable="0" parent="ZQUHLIVJ1xkmGwxhRDHh-73">
          <mxGeometry x="0.3032" y="-3" relative="1" as="geometry">
            <mxPoint x="-11" y="-3" as="offset" />
          </mxGeometry>
        </mxCell>
        <mxCell id="ZQUHLIVJ1xkmGwxhRDHh-75" style="edgeStyle=orthogonalEdgeStyle;rounded=0;orthogonalLoop=1;jettySize=auto;html=1;entryX=1;entryY=0.5;entryDx=0;entryDy=0;fillColor=#e1d5e7;strokeColor=#9673a6;" edge="1" parent="ZQUHLIVJ1xkmGwxhRDHh-96" source="ZQUHLIVJ1xkmGwxhRDHh-67" target="ZQUHLIVJ1xkmGwxhRDHh-53">
          <mxGeometry relative="1" as="geometry">
            <Array as="points">
              <mxPoint x="280" y="735" />
              <mxPoint x="280" y="445" />
            </Array>
          </mxGeometry>
        </mxCell>
        <mxCell id="ZQUHLIVJ1xkmGwxhRDHh-76" value="( n )" style="edgeLabel;html=1;align=center;verticalAlign=middle;resizable=0;points=[];" vertex="1" connectable="0" parent="ZQUHLIVJ1xkmGwxhRDHh-75">
          <mxGeometry x="-0.7363" y="2" relative="1" as="geometry">
            <mxPoint as="offset" />
          </mxGeometry>
        </mxCell>
        <mxCell id="ZQUHLIVJ1xkmGwxhRDHh-78" value="Emprestimo" style="swimlane;fontStyle=0;childLayout=stackLayout;horizontal=1;startSize=30;horizontalStack=0;resizeParent=1;resizeParentMax=0;resizeLast=0;collapsible=1;marginBottom=0;whiteSpace=wrap;html=1;fillColor=#f8cecc;strokeColor=#b85450;" vertex="1" parent="ZQUHLIVJ1xkmGwxhRDHh-96">
          <mxGeometry x="720" y="340" width="140" height="190" as="geometry" />
        </mxCell>
        <mxCell id="ZQUHLIVJ1xkmGwxhRDHh-79" value="ID_Emprestimo" style="text;strokeColor=none;fillColor=none;align=left;verticalAlign=middle;spacingLeft=4;spacingRight=4;overflow=hidden;points=[[0,0.5],[1,0.5]];portConstraint=eastwest;rotatable=0;whiteSpace=wrap;html=1;" vertex="1" parent="ZQUHLIVJ1xkmGwxhRDHh-78">
          <mxGeometry y="30" width="140" height="30" as="geometry" />
        </mxCell>
        <mxCell id="ZQUHLIVJ1xkmGwxhRDHh-80" value="Numero" style="text;strokeColor=none;fillColor=none;align=left;verticalAlign=middle;spacingLeft=4;spacingRight=4;overflow=hidden;points=[[0,0.5],[1,0.5]];portConstraint=eastwest;rotatable=0;whiteSpace=wrap;html=1;" vertex="1" parent="ZQUHLIVJ1xkmGwxhRDHh-78">
          <mxGeometry y="60" width="140" height="30" as="geometry" />
        </mxCell>
        <mxCell id="ZQUHLIVJ1xkmGwxhRDHh-81" value="Valor" style="text;strokeColor=none;fillColor=none;align=left;verticalAlign=middle;spacingLeft=4;spacingRight=4;overflow=hidden;points=[[0,0.5],[1,0.5]];portConstraint=eastwest;rotatable=0;whiteSpace=wrap;html=1;" vertex="1" parent="ZQUHLIVJ1xkmGwxhRDHh-78">
          <mxGeometry y="90" width="140" height="30" as="geometry" />
        </mxCell>
        <mxCell id="ZQUHLIVJ1xkmGwxhRDHh-82" value="" style="line;strokeWidth=1;html=1;fillColor=#f8cecc;strokeColor=#b85450;" vertex="1" parent="ZQUHLIVJ1xkmGwxhRDHh-78">
          <mxGeometry y="120" width="140" height="10" as="geometry" />
        </mxCell>
        <mxCell id="ZQUHLIVJ1xkmGwxhRDHh-83" value="ID_Agencia" style="text;strokeColor=none;fillColor=none;align=left;verticalAlign=middle;spacingLeft=4;spacingRight=4;overflow=hidden;points=[[0,0.5],[1,0.5]];portConstraint=eastwest;rotatable=0;whiteSpace=wrap;html=1;" vertex="1" parent="ZQUHLIVJ1xkmGwxhRDHh-78">
          <mxGeometry y="130" width="140" height="30" as="geometry" />
        </mxCell>
        <mxCell id="ZQUHLIVJ1xkmGwxhRDHh-85" value="ID_Cliente" style="text;strokeColor=none;fillColor=none;align=left;verticalAlign=middle;spacingLeft=4;spacingRight=4;overflow=hidden;points=[[0,0.5],[1,0.5]];portConstraint=eastwest;rotatable=0;whiteSpace=wrap;html=1;" vertex="1" parent="ZQUHLIVJ1xkmGwxhRDHh-78">
          <mxGeometry y="160" width="140" height="30" as="geometry" />
        </mxCell>
        <mxCell id="ZQUHLIVJ1xkmGwxhRDHh-86" style="edgeStyle=orthogonalEdgeStyle;rounded=0;orthogonalLoop=1;jettySize=auto;html=1;fillColor=#ffe6cc;strokeColor=#d79b00;" edge="1" parent="ZQUHLIVJ1xkmGwxhRDHh-96" source="ZQUHLIVJ1xkmGwxhRDHh-45" target="ZQUHLIVJ1xkmGwxhRDHh-79">
          <mxGeometry relative="1" as="geometry" />
        </mxCell>
        <mxCell id="ZQUHLIVJ1xkmGwxhRDHh-91" value="( n )" style="edgeLabel;html=1;align=center;verticalAlign=middle;resizable=0;points=[];" vertex="1" connectable="0" parent="ZQUHLIVJ1xkmGwxhRDHh-86">
          <mxGeometry x="-0.2396" y="-2" relative="1" as="geometry">
            <mxPoint x="9" y="-2" as="offset" />
          </mxGeometry>
        </mxCell>
        <mxCell id="ZQUHLIVJ1xkmGwxhRDHh-89" style="edgeStyle=orthogonalEdgeStyle;rounded=0;orthogonalLoop=1;jettySize=auto;html=1;fillColor=#e1d5e7;strokeColor=#9673a6;" edge="1" parent="ZQUHLIVJ1xkmGwxhRDHh-96" source="ZQUHLIVJ1xkmGwxhRDHh-77" target="ZQUHLIVJ1xkmGwxhRDHh-79">
          <mxGeometry relative="1" as="geometry">
            <Array as="points">
              <mxPoint x="680" y="765" />
              <mxPoint x="680" y="385" />
            </Array>
          </mxGeometry>
        </mxCell>
        <mxCell id="ZQUHLIVJ1xkmGwxhRDHh-90" value="( n )" style="edgeLabel;html=1;align=center;verticalAlign=middle;resizable=0;points=[];" vertex="1" connectable="0" parent="ZQUHLIVJ1xkmGwxhRDHh-89">
          <mxGeometry x="-0.7593" y="-4" relative="1" as="geometry">
            <mxPoint x="5" y="-4" as="offset" />
          </mxGeometry>
        </mxCell>
        <mxCell id="ZQUHLIVJ1xkmGwxhRDHh-92" style="edgeStyle=orthogonalEdgeStyle;rounded=0;orthogonalLoop=1;jettySize=auto;html=1;entryX=1;entryY=0.5;entryDx=0;entryDy=0;fillColor=#f8cecc;strokeColor=#b85450;" edge="1" parent="ZQUHLIVJ1xkmGwxhRDHh-96" source="ZQUHLIVJ1xkmGwxhRDHh-83" target="ZQUHLIVJ1xkmGwxhRDHh-32">
          <mxGeometry relative="1" as="geometry">
            <Array as="points">
              <mxPoint x="660" y="485" />
              <mxPoint x="660" y="255" />
            </Array>
          </mxGeometry>
        </mxCell>
        <mxCell id="ZQUHLIVJ1xkmGwxhRDHh-93" value="( 1&amp;nbsp; ) " style="edgeLabel;html=1;align=center;verticalAlign=middle;resizable=0;points=[];" vertex="1" connectable="0" parent="ZQUHLIVJ1xkmGwxhRDHh-92">
          <mxGeometry x="0.6838" relative="1" as="geometry">
            <mxPoint as="offset" />
          </mxGeometry>
        </mxCell>
        <mxCell id="ZQUHLIVJ1xkmGwxhRDHh-94" style="edgeStyle=orthogonalEdgeStyle;rounded=0;orthogonalLoop=1;jettySize=auto;html=1;entryX=1;entryY=0.5;entryDx=0;entryDy=0;fillColor=#f8cecc;strokeColor=#b85450;" edge="1" parent="ZQUHLIVJ1xkmGwxhRDHh-96" source="ZQUHLIVJ1xkmGwxhRDHh-85" target="ZQUHLIVJ1xkmGwxhRDHh-63">
          <mxGeometry relative="1" as="geometry">
            <Array as="points">
              <mxPoint x="620" y="515" />
              <mxPoint x="620" y="575" />
            </Array>
          </mxGeometry>
        </mxCell>
        <mxCell id="ZQUHLIVJ1xkmGwxhRDHh-95" value="( 1 )" style="edgeLabel;html=1;align=center;verticalAlign=middle;resizable=0;points=[];" vertex="1" connectable="0" parent="ZQUHLIVJ1xkmGwxhRDHh-94">
          <mxGeometry x="0.3485" y="-2" relative="1" as="geometry">
            <mxPoint x="2" y="7" as="offset" />
          </mxGeometry>
        </mxCell>
        <mxCell id="ZQUHLIVJ1xkmGwxhRDHh-155" value="Categoria" style="swimlane;fontStyle=0;childLayout=stackLayout;horizontal=1;startSize=30;horizontalStack=0;resizeParent=1;resizeParentMax=0;resizeLast=0;collapsible=1;marginBottom=0;whiteSpace=wrap;html=1;fillColor=#dae8fc;strokeColor=#6c8ebf;" vertex="1" parent="1">
          <mxGeometry x="80" y="120" width="140" height="130" as="geometry" />
        </mxCell>
        <mxCell id="ZQUHLIVJ1xkmGwxhRDHh-156" value="ID_Categoria" style="text;strokeColor=none;fillColor=none;align=left;verticalAlign=middle;spacingLeft=4;spacingRight=4;overflow=hidden;points=[[0,0.5],[1,0.5]];portConstraint=eastwest;rotatable=0;whiteSpace=wrap;html=1;" vertex="1" parent="ZQUHLIVJ1xkmGwxhRDHh-155">
          <mxGeometry y="30" width="140" height="30" as="geometry" />
        </mxCell>
        <mxCell id="ZQUHLIVJ1xkmGwxhRDHh-157" value="Nome" style="text;strokeColor=none;fillColor=none;align=left;verticalAlign=middle;spacingLeft=4;spacingRight=4;overflow=hidden;points=[[0,0.5],[1,0.5]];portConstraint=eastwest;rotatable=0;whiteSpace=wrap;html=1;" vertex="1" parent="ZQUHLIVJ1xkmGwxhRDHh-155">
          <mxGeometry y="60" width="140" height="30" as="geometry" />
        </mxCell>
        <mxCell id="ZQUHLIVJ1xkmGwxhRDHh-158" value="Descrição" style="text;strokeColor=none;fillColor=none;align=left;verticalAlign=middle;spacingLeft=4;spacingRight=4;overflow=hidden;points=[[0,0.5],[1,0.5]];portConstraint=eastwest;rotatable=0;whiteSpace=wrap;html=1;" vertex="1" parent="ZQUHLIVJ1xkmGwxhRDHh-155">
          <mxGeometry y="90" width="140" height="30" as="geometry" />
        </mxCell>
        <mxCell id="ZQUHLIVJ1xkmGwxhRDHh-159" value="" style="line;strokeWidth=1;html=1;fillColor=#dae8fc;strokeColor=#6c8ebf;" vertex="1" parent="ZQUHLIVJ1xkmGwxhRDHh-155">
          <mxGeometry y="120" width="140" height="10" as="geometry" />
        </mxCell>
        <mxCell id="ZQUHLIVJ1xkmGwxhRDHh-161" value="Pessoa" style="swimlane;fontStyle=0;childLayout=stackLayout;horizontal=1;startSize=30;horizontalStack=0;resizeParent=1;resizeParentMax=0;resizeLast=0;collapsible=1;marginBottom=0;whiteSpace=wrap;html=1;fillColor=#dae8fc;strokeColor=#6c8ebf;" vertex="1" parent="1">
          <mxGeometry x="250" y="120" width="140" height="190" as="geometry" />
        </mxCell>
        <mxCell id="ZQUHLIVJ1xkmGwxhRDHh-162" value="ID_Pessoa" style="text;strokeColor=none;fillColor=none;align=left;verticalAlign=middle;spacingLeft=4;spacingRight=4;overflow=hidden;points=[[0,0.5],[1,0.5]];portConstraint=eastwest;rotatable=0;whiteSpace=wrap;html=1;" vertex="1" parent="ZQUHLIVJ1xkmGwxhRDHh-161">
          <mxGeometry y="30" width="140" height="30" as="geometry" />
        </mxCell>
        <mxCell id="ZQUHLIVJ1xkmGwxhRDHh-163" value="Nome" style="text;strokeColor=none;fillColor=none;align=left;verticalAlign=middle;spacingLeft=4;spacingRight=4;overflow=hidden;points=[[0,0.5],[1,0.5]];portConstraint=eastwest;rotatable=0;whiteSpace=wrap;html=1;" vertex="1" parent="ZQUHLIVJ1xkmGwxhRDHh-161">
          <mxGeometry y="60" width="140" height="30" as="geometry" />
        </mxCell>
        <mxCell id="ZQUHLIVJ1xkmGwxhRDHh-164" value="CPF" style="text;strokeColor=none;fillColor=none;align=left;verticalAlign=middle;spacingLeft=4;spacingRight=4;overflow=hidden;points=[[0,0.5],[1,0.5]];portConstraint=eastwest;rotatable=0;whiteSpace=wrap;html=1;" vertex="1" parent="ZQUHLIVJ1xkmGwxhRDHh-161">
          <mxGeometry y="90" width="140" height="30" as="geometry" />
        </mxCell>
        <mxCell id="ZQUHLIVJ1xkmGwxhRDHh-166" value="Endereço" style="text;strokeColor=none;fillColor=none;align=left;verticalAlign=middle;spacingLeft=4;spacingRight=4;overflow=hidden;points=[[0,0.5],[1,0.5]];portConstraint=eastwest;rotatable=0;whiteSpace=wrap;html=1;" vertex="1" parent="ZQUHLIVJ1xkmGwxhRDHh-161">
          <mxGeometry y="120" width="140" height="30" as="geometry" />
        </mxCell>
        <mxCell id="ZQUHLIVJ1xkmGwxhRDHh-167" value="Fone" style="text;strokeColor=none;fillColor=none;align=left;verticalAlign=middle;spacingLeft=4;spacingRight=4;overflow=hidden;points=[[0,0.5],[1,0.5]];portConstraint=eastwest;rotatable=0;whiteSpace=wrap;html=1;" vertex="1" parent="ZQUHLIVJ1xkmGwxhRDHh-161">
          <mxGeometry y="150" width="140" height="30" as="geometry" />
        </mxCell>
        <mxCell id="ZQUHLIVJ1xkmGwxhRDHh-165" value="" style="line;strokeWidth=1;html=1;fillColor=#dae8fc;strokeColor=#6c8ebf;" vertex="1" parent="ZQUHLIVJ1xkmGwxhRDHh-161">
          <mxGeometry y="180" width="140" height="10" as="geometry" />
        </mxCell>
        <mxCell id="ZQUHLIVJ1xkmGwxhRDHh-168" value="Cliente" style="swimlane;fontStyle=0;childLayout=stackLayout;horizontal=1;startSize=30;horizontalStack=0;resizeParent=1;resizeParentMax=0;resizeLast=0;collapsible=1;marginBottom=0;whiteSpace=wrap;html=1;fillColor=#dae8fc;strokeColor=#6c8ebf;" vertex="1" parent="1">
          <mxGeometry x="80" y="340" width="140" height="100" as="geometry" />
        </mxCell>
        <mxCell id="ZQUHLIVJ1xkmGwxhRDHh-169" value="ID_Cliente" style="text;strokeColor=none;fillColor=none;align=left;verticalAlign=middle;spacingLeft=4;spacingRight=4;overflow=hidden;points=[[0,0.5],[1,0.5]];portConstraint=eastwest;rotatable=0;whiteSpace=wrap;html=1;" vertex="1" parent="ZQUHLIVJ1xkmGwxhRDHh-168">
          <mxGeometry y="30" width="140" height="30" as="geometry" />
        </mxCell>
        <mxCell id="ZQUHLIVJ1xkmGwxhRDHh-174" value="" style="line;strokeWidth=1;html=1;fillColor=#dae8fc;strokeColor=#6c8ebf;" vertex="1" parent="ZQUHLIVJ1xkmGwxhRDHh-168">
          <mxGeometry y="60" width="140" height="10" as="geometry" />
        </mxCell>
        <mxCell id="ZQUHLIVJ1xkmGwxhRDHh-173" value="ID_Pessoa" style="text;strokeColor=none;fillColor=none;align=left;verticalAlign=middle;spacingLeft=4;spacingRight=4;overflow=hidden;points=[[0,0.5],[1,0.5]];portConstraint=eastwest;rotatable=0;whiteSpace=wrap;html=1;" vertex="1" parent="ZQUHLIVJ1xkmGwxhRDHh-168">
          <mxGeometry y="70" width="140" height="30" as="geometry" />
        </mxCell>
        <mxCell id="ZQUHLIVJ1xkmGwxhRDHh-175" value="Funcionario" style="swimlane;fontStyle=0;childLayout=stackLayout;horizontal=1;startSize=30;horizontalStack=0;resizeParent=1;resizeParentMax=0;resizeLast=0;collapsible=1;marginBottom=0;whiteSpace=wrap;html=1;fillColor=#dae8fc;strokeColor=#6c8ebf;" vertex="1" parent="1">
          <mxGeometry x="250" y="340" width="140" height="130" as="geometry" />
        </mxCell>
        <mxCell id="ZQUHLIVJ1xkmGwxhRDHh-176" value="ID_Funcionario" style="text;strokeColor=none;fillColor=none;align=left;verticalAlign=middle;spacingLeft=4;spacingRight=4;overflow=hidden;points=[[0,0.5],[1,0.5]];portConstraint=eastwest;rotatable=0;whiteSpace=wrap;html=1;" vertex="1" parent="ZQUHLIVJ1xkmGwxhRDHh-175">
          <mxGeometry y="30" width="140" height="30" as="geometry" />
        </mxCell>
        <mxCell id="ZQUHLIVJ1xkmGwxhRDHh-179" value="CT" style="text;strokeColor=none;fillColor=none;align=left;verticalAlign=middle;spacingLeft=4;spacingRight=4;overflow=hidden;points=[[0,0.5],[1,0.5]];portConstraint=eastwest;rotatable=0;whiteSpace=wrap;html=1;" vertex="1" parent="ZQUHLIVJ1xkmGwxhRDHh-175">
          <mxGeometry y="60" width="140" height="30" as="geometry" />
        </mxCell>
        <mxCell id="ZQUHLIVJ1xkmGwxhRDHh-177" value="" style="line;strokeWidth=1;html=1;fillColor=#dae8fc;strokeColor=#6c8ebf;" vertex="1" parent="ZQUHLIVJ1xkmGwxhRDHh-175">
          <mxGeometry y="90" width="140" height="10" as="geometry" />
        </mxCell>
        <mxCell id="ZQUHLIVJ1xkmGwxhRDHh-178" value="ID_Pessoa" style="text;strokeColor=none;fillColor=none;align=left;verticalAlign=middle;spacingLeft=4;spacingRight=4;overflow=hidden;points=[[0,0.5],[1,0.5]];portConstraint=eastwest;rotatable=0;whiteSpace=wrap;html=1;" vertex="1" parent="ZQUHLIVJ1xkmGwxhRDHh-175">
          <mxGeometry y="100" width="140" height="30" as="geometry" />
        </mxCell>
        <mxCell id="ZQUHLIVJ1xkmGwxhRDHh-181" value="Fornecedor" style="swimlane;fontStyle=0;childLayout=stackLayout;horizontal=1;startSize=30;horizontalStack=0;resizeParent=1;resizeParentMax=0;resizeLast=0;collapsible=1;marginBottom=0;whiteSpace=wrap;html=1;fillColor=#dae8fc;strokeColor=#6c8ebf;" vertex="1" parent="1">
          <mxGeometry x="420" y="120" width="140" height="130" as="geometry" />
        </mxCell>
        <mxCell id="ZQUHLIVJ1xkmGwxhRDHh-182" value="ID_Fornecedor" style="text;strokeColor=none;fillColor=none;align=left;verticalAlign=middle;spacingLeft=4;spacingRight=4;overflow=hidden;points=[[0,0.5],[1,0.5]];portConstraint=eastwest;rotatable=0;whiteSpace=wrap;html=1;" vertex="1" parent="ZQUHLIVJ1xkmGwxhRDHh-181">
          <mxGeometry y="30" width="140" height="30" as="geometry" />
        </mxCell>
        <mxCell id="ZQUHLIVJ1xkmGwxhRDHh-183" value="Nome" style="text;strokeColor=none;fillColor=none;align=left;verticalAlign=middle;spacingLeft=4;spacingRight=4;overflow=hidden;points=[[0,0.5],[1,0.5]];portConstraint=eastwest;rotatable=0;whiteSpace=wrap;html=1;" vertex="1" parent="ZQUHLIVJ1xkmGwxhRDHh-181">
          <mxGeometry y="60" width="140" height="30" as="geometry" />
        </mxCell>
        <mxCell id="ZQUHLIVJ1xkmGwxhRDHh-184" value="Endereço" style="text;strokeColor=none;fillColor=none;align=left;verticalAlign=middle;spacingLeft=4;spacingRight=4;overflow=hidden;points=[[0,0.5],[1,0.5]];portConstraint=eastwest;rotatable=0;whiteSpace=wrap;html=1;" vertex="1" parent="ZQUHLIVJ1xkmGwxhRDHh-181">
          <mxGeometry y="90" width="140" height="30" as="geometry" />
        </mxCell>
        <mxCell id="ZQUHLIVJ1xkmGwxhRDHh-185" value="" style="line;strokeWidth=1;html=1;fillColor=#dae8fc;strokeColor=#6c8ebf;" vertex="1" parent="ZQUHLIVJ1xkmGwxhRDHh-181">
          <mxGeometry y="120" width="140" height="10" as="geometry" />
        </mxCell>
        <mxCell id="ZQUHLIVJ1xkmGwxhRDHh-187" value="Produto" style="swimlane;fontStyle=0;childLayout=stackLayout;horizontal=1;startSize=30;horizontalStack=0;resizeParent=1;resizeParentMax=0;resizeLast=0;collapsible=1;marginBottom=0;whiteSpace=wrap;html=1;fillColor=#dae8fc;strokeColor=#6c8ebf;" vertex="1" parent="1">
          <mxGeometry x="425" y="340" width="140" height="220" as="geometry" />
        </mxCell>
        <mxCell id="ZQUHLIVJ1xkmGwxhRDHh-188" value="ID_Produto" style="text;strokeColor=none;fillColor=none;align=left;verticalAlign=middle;spacingLeft=4;spacingRight=4;overflow=hidden;points=[[0,0.5],[1,0.5]];portConstraint=eastwest;rotatable=0;whiteSpace=wrap;html=1;" vertex="1" parent="ZQUHLIVJ1xkmGwxhRDHh-187">
          <mxGeometry y="30" width="140" height="30" as="geometry" />
        </mxCell>
        <mxCell id="ZQUHLIVJ1xkmGwxhRDHh-189" value="Nome" style="text;strokeColor=none;fillColor=none;align=left;verticalAlign=middle;spacingLeft=4;spacingRight=4;overflow=hidden;points=[[0,0.5],[1,0.5]];portConstraint=eastwest;rotatable=0;whiteSpace=wrap;html=1;" vertex="1" parent="ZQUHLIVJ1xkmGwxhRDHh-187">
          <mxGeometry y="60" width="140" height="30" as="geometry" />
        </mxCell>
        <mxCell id="ZQUHLIVJ1xkmGwxhRDHh-192" value="Peso" style="text;strokeColor=none;fillColor=none;align=left;verticalAlign=middle;spacingLeft=4;spacingRight=4;overflow=hidden;points=[[0,0.5],[1,0.5]];portConstraint=eastwest;rotatable=0;whiteSpace=wrap;html=1;" vertex="1" parent="ZQUHLIVJ1xkmGwxhRDHh-187">
          <mxGeometry y="90" width="140" height="30" as="geometry" />
        </mxCell>
        <mxCell id="ZQUHLIVJ1xkmGwxhRDHh-193" value="Valor" style="text;strokeColor=none;fillColor=none;align=left;verticalAlign=middle;spacingLeft=4;spacingRight=4;overflow=hidden;points=[[0,0.5],[1,0.5]];portConstraint=eastwest;rotatable=0;whiteSpace=wrap;html=1;" vertex="1" parent="ZQUHLIVJ1xkmGwxhRDHh-187">
          <mxGeometry y="120" width="140" height="30" as="geometry" />
        </mxCell>
        <mxCell id="ZQUHLIVJ1xkmGwxhRDHh-190" value="" style="line;strokeWidth=1;html=1;fillColor=#dae8fc;strokeColor=#6c8ebf;" vertex="1" parent="ZQUHLIVJ1xkmGwxhRDHh-187">
          <mxGeometry y="150" width="140" height="10" as="geometry" />
        </mxCell>
        <mxCell id="ZQUHLIVJ1xkmGwxhRDHh-194" value="ID_Fornecedor" style="text;strokeColor=none;fillColor=none;align=left;verticalAlign=middle;spacingLeft=4;spacingRight=4;overflow=hidden;points=[[0,0.5],[1,0.5]];portConstraint=eastwest;rotatable=0;whiteSpace=wrap;html=1;" vertex="1" parent="ZQUHLIVJ1xkmGwxhRDHh-187">
          <mxGeometry y="160" width="140" height="30" as="geometry" />
        </mxCell>
        <mxCell id="ZQUHLIVJ1xkmGwxhRDHh-191" value="ID_Categoria" style="text;strokeColor=none;fillColor=none;align=left;verticalAlign=middle;spacingLeft=4;spacingRight=4;overflow=hidden;points=[[0,0.5],[1,0.5]];portConstraint=eastwest;rotatable=0;whiteSpace=wrap;html=1;" vertex="1" parent="ZQUHLIVJ1xkmGwxhRDHh-187">
          <mxGeometry y="190" width="140" height="30" as="geometry" />
        </mxCell>
      </root>
    </mxGraphModel>
  </diagram>
</mxfile>
